<?xml version="1.0" encoding="UTF-8" standalone="no"?>
<svg
   xmlns:dc="http://purl.org/dc/elements/1.1/"
   xmlns:cc="http://creativecommons.org/ns#"
   xmlns:rdf="http://www.w3.org/1999/02/22-rdf-syntax-ns#"
   xmlns:svg="http://www.w3.org/2000/svg"
   xmlns="http://www.w3.org/2000/svg"
   xmlns:sodipodi="http://sodipodi.sourceforge.net/DTD/sodipodi-0.dtd"
   xmlns:inkscape="http://www.inkscape.org/namespaces/inkscape"
   xml:space="preserve"
   enable-background="new 0 0 612 792"
   viewBox="0 0 1052.3622 744.09448"
   height="210mm"
   width="297mm"
   y="0px"
   x="0px"
   id="Layer_1"
   version="1.1"
   inkscape:version="0.91 r13725"
   sodipodi:docname="sjs-logo.svg"
   inkscape:export-filename="/home/saghul/src/sjs/docs/source/.static/sjs-logo.png"
   inkscape:export-xdpi="90"
   inkscape:export-ydpi="90"><sodipodi:namedview
     pagecolor="#ffffff"
     bordercolor="#666666"
     borderopacity="1"
     objecttolerance="10"
     gridtolerance="10"
     guidetolerance="10"
     inkscape:pageopacity="0"
     inkscape:pageshadow="2"
     inkscape:window-width="1920"
     inkscape:window-height="1029"
     id="namedview3686"
     showgrid="false"
     units="mm"
     inkscape:zoom="1"
     inkscape:cx="367.874"
     inkscape:cy="352.06231"
     inkscape:window-x="0"
     inkscape:window-y="0"
     inkscape:window-maximized="1"
     inkscape:current-layer="Layer_1" /><metadata
     id="metadata15"><rdf:RDF><cc:Work
         rdf:about=""><dc:format>image/svg+xml</dc:format><dc:type
           rdf:resource="http://purl.org/dc/dcmitype/StillImage" /><dc:title></dc:title></cc:Work></rdf:RDF></metadata><defs
     id="defs13" /><path
     d="m 299.6551,418.48089 -133.21754,76.91323 -133.217545,-76.91323 0,-153.82632 133.217545,-76.91322 133.21754,76.91322 z"
     id="path3341"
     style="fill:#f3e061;fill-opacity:1;stroke:#41423f;stroke-width:4.24608946;stroke-miterlimit:4;stroke-dasharray:none;stroke-opacity:1"
     inkscape:connector-curvature="0" /><g
     style="display:inline"
     id="layer1"
     transform="translate(0,608.2875)" /><g
     style="display:inline"
     id="layer2"
     transform="matrix(6.0343313,0,0,6.0343313,-5.694168,-62.13187)"><g
       transform="matrix(0.52404119,0,0,0.52404119,-32.898026,33.16465)"
       id="g4143"><path
         style="clip-rule:evenodd;fill:#41423f;fill-opacity:1;fill-rule:evenodd;stroke:none"
         d="m 157.39029,54.825124 -14.66458,-15.31215 -50.147709,-0.0808 -15.39156,15.39292 0,0 38.684019,46.583566 z"
         id="polygon7"
         inkscape:connector-curvature="0" /><path
         style="clip-rule:evenodd;fill:#f3e061;fill-opacity:1;fill-rule:evenodd"
         id="path9"
         d="m 83.914511,55.101224 10.24157,-10.58383 6.434179,0.0794 c -9.935349,4.80362 -12.342639,11.32496 -10.701119,17.26673 l -5.97463,-6.7623 0,0 z m 22.654029,27.24269 c 7.95476,2.17957 12.86379,2.53872 19.93824,0.36783 l -10.18589,10.6751 -9.75235,-11.04293 0,0 z m -13.493569,-15.29526 8.302959,9.32429 c 1.26137,-4.88439 14.3789,-1.8989 15.52983,2.10107 5.49819,1.809 14.86766,-1.26913 14.99864,-4.13597 -0.0256,-6.91518 -31.957319,-1.17786 -38.831429,-7.28939 l 0,0 z m 49.043789,-20.81901 -0.22271,9.86416 -12.93407,0 c 0.17524,-6.5218 -4.7808,-9.72452 -14.32231,-9.46166 -6.71849,0.13144 -13.17412,2.75731 -13.26174,7.09043 0,10.28583 36.17452,-0.83149 39.06326,13.5246 l 10.49074,-12.1318 -8.81317,-8.88573 0,0 z m -15.38471,-1.59634 6.86132,0.008 -1.50369,5.10663 c -1.26457,-3.09182 -3.39347,-4.22039 -5.35763,-5.11485 l 0,0 z"
         inkscape:connector-curvature="0" /></g><text
       id="text4152"
       y="73.486084"
       x="54.711292"
       style="font-style:normal;font-variant:normal;font-weight:300;font-stretch:normal;font-size:21.22748566px;line-height:125%;font-family:Roboto;-inkscape-font-specification:'Roboto, Light';text-align:start;letter-spacing:0px;word-spacing:0px;writing-mode:lr-tb;text-anchor:start;fill:#41423f;fill-opacity:1;stroke:none;stroke-width:1px;stroke-linecap:butt;stroke-linejoin:miter;stroke-opacity:1"
       xml:space="preserve"
       sodipodi:linespacing="125%"><tspan
         y="73.486084"
         x="54.711292"
         id="tspan4154">Skookum JS</tspan></text>
</g></svg>